<svg width="135" height="100" viewBox="0 0 135 100" fill="none" xmlns="http://www.w3.org/2000/svg">
<path d="M114.058 50.8816V49.8556C114.058 41.7541 105.16 35.1633 94.2233 35.1633H64.3043H40.7765C29.8396 35.1633 20.9418 41.7543 20.9418 49.8556V50.8816C13.1962 51.9905 7.32788 57.0505 7.32788 63.1063C7.32788 69.1699 13.2086 74.233 20.9661 75.3352C21.4836 83.0968 30.1714 89.294 40.7765 89.294H94.2235C104.828 89.294 113.516 83.0968 114.033 75.3352C121.791 74.233 127.672 69.1699 127.672 63.1063C127.672 57.0503 121.804 51.9905 114.058 50.8816ZM20.9418 70.4505C16.7563 69.4489 13.7198 66.5361 13.7198 63.1061C13.7198 59.6769 16.7563 56.7643 20.9418 55.7624V70.4505ZM107.667 74.6016C107.667 80.0925 101.636 84.5593 94.2233 84.5593H40.7765C33.3636 84.5593 27.3332 80.0925 27.3332 74.6016V49.8556C27.3332 44.365 33.3636 39.898 40.7765 39.898H94.2235C101.636 39.898 107.667 44.365 107.667 49.8556V74.6016ZM114.058 70.4505V55.7625C118.243 56.7644 121.28 59.677 121.28 63.1063C121.28 66.536 118.243 69.449 114.058 70.4505Z" fill="#102A42"/>
<path d="M90.8076 50.0764C85.6091 50.0764 81.3804 53.2093 81.3804 57.0596C81.3804 60.9103 85.6094 64.0428 90.8076 64.0428C96.0058 64.0428 100.235 60.9101 100.235 57.0596C100.235 53.2094 96.0058 50.0764 90.8076 50.0764ZM90.8076 59.3083C89.1336 59.3083 87.7718 58.3002 87.7718 57.0598C87.7718 55.8198 89.1336 54.8107 90.8076 54.8107C92.4818 54.8107 93.8438 55.8198 93.8438 57.0598C93.8438 58.2999 92.4818 59.3083 90.8076 59.3083Z" fill="#102A42"/>
<path d="M44.1924 50.0764C38.9937 50.0764 34.765 53.2093 34.765 57.0596C34.765 60.9103 38.9939 64.0428 44.1924 64.0428C49.3904 64.0428 53.6198 60.9101 53.6198 57.0596C53.6198 53.2094 49.3904 50.0764 44.1924 50.0764ZM44.1924 59.3083C42.5184 59.3083 41.1564 58.3002 41.1564 57.0598C41.1564 55.8198 42.5184 54.8107 44.1924 54.8107C45.8662 54.8107 47.2284 55.8198 47.2284 57.0598C47.2284 58.2999 45.8662 59.3083 44.1924 59.3083Z" fill="#102A42"/>
<path d="M76.2081 71.4026H58.7915C57.0264 71.4026 55.5956 72.4625 55.5956 73.7694C55.5956 75.077 57.0264 76.1367 58.7915 76.1367H76.2084C77.973 76.1367 79.404 75.0768 79.404 73.7694C79.4038 72.4623 77.973 71.4026 76.2081 71.4026Z" fill="#102A42"/>
<path d="M86.6748 37.7965L98.9901 28.674C100.238 27.7494 100.238 26.2506 98.9907 25.3265C97.7425 24.4018 95.7192 24.402 94.4711 25.3265L82.1555 34.4492C80.9077 35.3735 80.9076 36.8724 82.1556 37.7969C83.4035 38.7211 85.4268 38.7209 86.6748 37.7965Z" fill="#102A42"/>
<path d="M48.3252 37.7965L36.0099 28.674C34.7618 27.7494 34.7618 26.2506 36.0093 25.3265C37.2575 24.4018 39.2808 24.402 40.5289 25.3265L52.8445 34.4492C54.0923 35.3735 54.0924 36.8724 52.8444 37.7969C51.5965 38.7211 49.5732 38.7209 48.3252 37.7965Z" fill="#102A42"/>
<path d="M39.85 24C39.85 24.5993 39.5265 25.3033 38.6825 25.9284C37.8389 26.5533 36.5788 27 35.1 27C33.6212 27 32.3611 26.5533 31.5175 25.9284C30.6735 25.3033 30.35 24.5993 30.35 24C30.35 23.4007 30.6735 22.6967 31.5175 22.0716C32.3611 21.4467 33.6212 21 35.1 21C36.5788 21 37.8389 21.4467 38.6825 22.0716C39.5265 22.6967 39.85 23.4007 39.85 24Z" stroke="#102A42" stroke-width="4"/>
<path d="M104.65 24C104.65 24.5993 104.327 25.3033 103.483 25.9284C102.639 26.5533 101.379 27 99.9 27C98.4212 27 97.1611 26.5533 96.3175 25.9284C95.4735 25.3033 95.15 24.5993 95.15 24C95.15 23.4007 95.4735 22.6967 96.3175 22.0716C97.1611 21.4467 98.4212 21 99.9 21C101.379 21 102.639 21.4467 103.483 22.0716C104.327 22.6967 104.65 23.4007 104.65 24Z" stroke="#102A42" stroke-width="4"/>
</svg>
